# xmcd CD database file
#
# Track frame offsets:
#	150
#	16406
#	36928
#	53129
#	64843
#	81257
#	103905
#	120038
#	135925
#	150306
#
# Disc length: 2434 seconds
#
# Revision: 0
# Processed by: cddbd v1.5.1PL0 Copyright (c) Steve Scherf et al.
# Submitted via: CDex 1.51
#
DISCID=7309800a
DTITLE=Various Artist - Flipside
DYEAR=2004
DGENRE=Rock
TTITLE0=Ruck Rover - Wealth, Fame and Happiness (Owen Bolwell remix)
TTITLE1=Anthony Atkinson - Break In The Weather (J. Walker remix)
TTITLE2=Richard Easton - Coffin (Phil Romeril remix)
TTITLE3=Jodi Phillis - Leaves (Nick Hurford remix)
TTITLE4=The Guild Leage - Siamese Couplets (Two4K remix)
TTITLE5=Golden Rough - Provenance (Jason Backwell remix)
TTITLE6=Darren Hanlon - Falling Aeroplanes (Qua remix)
TTITLE7=Tim Oxley - Weeping Love (Isnod remix)
TTITLE8=The Lucksmiths - How To Tie A Tie (Pipas remix)
TTITLE9=The Mabels - Shifting Sands (Hydroplane remix)
EXTD=YEAR: 2004
EXTT0=
EXTT1=
EXTT2=
EXTT3=
EXTT4=
EXTT5=
EXTT6=
EXTT7=
EXTT8=
EXTT9=
PLAYORDER=
